HIERARCHY
ROOT pelvis
{
	OFFSET 0.003123 -0.351407 0.012037
	CHANNELS 6 Xposition Yposition Zposition Zrotation Yrotation Xrotation 
	JOINT left_hip
	{
		OFFSET 0.058189 -0.092763 -0.026001
		CHANNELS 3 Zrotation Yrotation Xrotation
		JOINT left_knee
		{
			OFFSET 0.054695 -0.378753 -0.009396
			CHANNELS 3 Zrotation Yrotation Xrotation
			JOINT left_ankle
			{
				OFFSET -0.043453 -0.403059 -0.031876
				CHANNELS 3 Zrotation Yrotation Xrotation
				JOINT left_foot
				{
					OFFSET 0.047257 -0.057997 0.118216
					CHANNELS 3 Zrotation Yrotation Xrotation
					End Site
					{
						OFFSET 0.000000 0.000000 0.000000
					}
				}
			}
		}
	}
	JOINT right_hip
	{
		OFFSET -0.063267 -0.103908 -0.021250
		CHANNELS 3 Zrotation Yrotation Xrotation
		JOINT right_knee
		{
			OFFSET -0.044210 -0.362380 -0.016824
			CHANNELS 3 Zrotation Yrotation Xrotation
			JOINT right_ankle
			{
				OFFSET 0.015417 -0.410728 -0.020192
				CHANNELS 3 Zrotation Yrotation Xrotation
				JOINT right_foot
				{
					OFFSET -0.038812 -0.058328 0.119049
					CHANNELS 3 Zrotation Yrotation Xrotation
					End Site
					{
						OFFSET 0.000000 0.000000 0.000000
					}
				}
			}
		}
	}
	JOINT spine_1
	{
		OFFSET -0.002763 0.109891 -0.027618
		CHANNELS 3 Zrotation Yrotation Xrotation
		JOINT spine_2
		{
			OFFSET 0.009448 0.131853 -0.005940
			CHANNELS 3 Zrotation Yrotation Xrotation
			JOINT spine_3
			{
				OFFSET -0.011330 0.052235 0.028447
				CHANNELS 3 Zrotation Yrotation Xrotation
				JOINT neck
				{
					OFFSET -0.012164 0.165167 -0.031615
					CHANNELS 3 Zrotation Yrotation Xrotation
					JOINT head
					{
						OFFSET 0.024783 0.160452 0.020737
						CHANNELS 3 Zrotation Yrotation Xrotation
						End Site
						{
							OFFSET 0.000000 0.000000 0.000000
						}
					}
				}
				JOINT left_collar
				{
					OFFSET 0.046364 0.084944 -0.007220
					CHANNELS 3 Zrotation Yrotation Xrotation
					JOINT left_shoulder
					{
						OFFSET 0.119239 0.057728 -0.015461
						CHANNELS 3 Zrotation Yrotation Xrotation
						JOINT left_elbow
						{
							OFFSET 0.254123 -0.072151 -0.042459
							CHANNELS 3 Zrotation Yrotation Xrotation
							JOINT left_wrist
							{
								OFFSET 0.251987 0.023221 -0.002472
								CHANNELS 3 Zrotation Yrotation Xrotation
								JOINT left_index_1
								{
									OFFSET 0.101902 -0.008688 0.019351
									CHANNELS 3 Zrotation Yrotation Xrotation
									JOINT left_index_2
									{
										OFFSET 0.030149 -0.011154 0.001151
										CHANNELS 3 Zrotation Yrotation Xrotation
										JOINT left_index_3
										{
											OFFSET 0.006504 -0.021577 -0.002433
											CHANNELS 3 Zrotation Yrotation Xrotation
											End Site
											{
												OFFSET 0.000000 0.000000 0.000000
											}
										}
									}
								}
								JOINT left_middle_1
								{
									OFFSET 0.109398 -0.006328 -0.003981
									CHANNELS 3 Zrotation Yrotation Xrotation
									JOINT left_middle_2
									{
										OFFSET 0.026472 -0.015218 -0.004641
										CHANNELS 3 Zrotation Yrotation Xrotation
										JOINT left_middle_3
										{
											OFFSET 0.005022 -0.023347 -0.001911
											CHANNELS 3 Zrotation Yrotation Xrotation
											End Site
											{
												OFFSET 0.000000 0.000000 0.000000
											}
										}
									}
								}
								JOINT left_pinky_1
								{
									OFFSET 0.084047 -0.014539 -0.043750
									CHANNELS 3 Zrotation Yrotation Xrotation
									JOINT left_pinky_2
									{
										OFFSET 0.012124 -0.014448 -0.005375
										CHANNELS 3 Zrotation Yrotation Xrotation
										JOINT left_pinky_3
										{
											OFFSET 0.003798 -0.018853 0.000167
											CHANNELS 3 Zrotation Yrotation Xrotation
											End Site
											{
												OFFSET 0.000000 0.000000 0.000000
											}
										}
									}
								}
								JOINT left_ring_1
								{
									OFFSET 0.097444 -0.009268 -0.027345
									CHANNELS 3 Zrotation Yrotation Xrotation
									JOINT left_ring_2
									{
										OFFSET 0.023561 -0.016057 -0.001895
										CHANNELS 3 Zrotation Yrotation Xrotation
										JOINT left_ring_3
										{
											OFFSET 0.004257 -0.023548 0.000814
											CHANNELS 3 Zrotation Yrotation Xrotation
											End Site
											{
												OFFSET 0.000000 0.000000 0.000000
											}
										}
									}
								}
								JOINT left_thumb_1
								{
									OFFSET 0.040636 -0.017977 0.025611
									CHANNELS 3 Zrotation Yrotation Xrotation
									JOINT left_thumb_2
									{
										OFFSET 0.021637 -0.017639 0.011623
										CHANNELS 3 Zrotation Yrotation Xrotation
										JOINT left_thumb_3
										{
											OFFSET 0.024002 -0.008356 0.006548
											CHANNELS 3 Zrotation Yrotation Xrotation
											End Site
											{
												OFFSET 0.000000 0.000000 0.000000
											}
										}
									}
								}
							}
						}
					}
				}
				JOINT right_collar
				{
					OFFSET -0.047695 0.084339 -0.013400
					CHANNELS 3 Zrotation Yrotation Xrotation
					JOINT right_shoulder
					{
						OFFSET -0.102578 0.053524 -0.012669
						CHANNELS 3 Zrotation Yrotation Xrotation
						JOINT right_elbow
						{
							OFFSET -0.271150 -0.036492 -0.026467
							CHANNELS 3 Zrotation Yrotation Xrotation
							JOINT right_wrist
							{
								OFFSET -0.249267 -0.004533 -0.015325
								CHANNELS 3 Zrotation Yrotation Xrotation
								JOINT right_index_1
								{
									OFFSET -0.099881 -0.011783 0.019600
									CHANNELS 3 Zrotation Yrotation Xrotation
									JOINT right_index_2
									{
										OFFSET -0.030148 -0.011154 0.001151
										CHANNELS 3 Zrotation Yrotation Xrotation
										JOINT right_index_3
										{
											OFFSET -0.006505 -0.021577 -0.002432
											CHANNELS 3 Zrotation Yrotation Xrotation
											End Site
											{
												OFFSET 0.000000 0.000000 0.000000
											}
										}
									}
								}
								JOINT right_middle_1
								{
									OFFSET -0.107376 -0.009422 -0.003734
									CHANNELS 3 Zrotation Yrotation Xrotation
									JOINT right_middle_2
									{
										OFFSET -0.026472 -0.015218 -0.004641
										CHANNELS 3 Zrotation Yrotation Xrotation
										JOINT right_middle_3
										{
											OFFSET -0.005022 -0.023347 -0.001911
											CHANNELS 3 Zrotation Yrotation Xrotation
											End Site
											{
												OFFSET 0.000000 0.000000 0.000000
											}
										}
									}
								}
								JOINT right_pinky_1
								{
									OFFSET -0.082027 -0.017634 -0.043503
									CHANNELS 3 Zrotation Yrotation Xrotation
									JOINT right_pinky_2
									{
										OFFSET -0.012123 -0.014448 -0.005374
										CHANNELS 3 Zrotation Yrotation Xrotation
										JOINT right_pinky_3
										{
											OFFSET -0.003798 -0.018852 0.000167
											CHANNELS 3 Zrotation Yrotation Xrotation
											End Site
											{
												OFFSET 0.000000 0.000000 0.000000
											}
										}
									}
								}
								JOINT right_ring_1
								{
									OFFSET -0.095423 -0.012362 -0.027099
									CHANNELS 3 Zrotation Yrotation Xrotation
									JOINT right_ring_2
									{
										OFFSET -0.023561 -0.016057 -0.001895
										CHANNELS 3 Zrotation Yrotation Xrotation
										JOINT right_ring_3
										{
											OFFSET -0.004257 -0.023548 0.000816
											CHANNELS 3 Zrotation Yrotation Xrotation
											End Site
											{
												OFFSET 0.000000 0.000000 0.000000
											}
										}
									}
								}
								JOINT right_thumb_1
								{
									OFFSET -0.038613 -0.021074 0.025861
									CHANNELS 3 Zrotation Yrotation Xrotation
									JOINT right_thumb_2
									{
										OFFSET -0.021636 -0.017639 0.011623
										CHANNELS 3 Zrotation Yrotation Xrotation
										JOINT right_thumb_3
										{
											OFFSET -0.024004 -0.008353 0.006547
											CHANNELS 3 Zrotation Yrotation Xrotation
											End Site
											{
												OFFSET 0.000000 0.000000 0.000000
											}
										}
									}
								}
							}
						}
					}
				}
			}
		}
	}
}
MOTION
Frames: 4
Frame Time: 0.050000
0.000027 0.955284 0.000587 0.307574 0.823331 -7.073702 1.589176 0.999303 7.851493 1.243441 -0.165660 0.566955 -6.254477 -8.585614 4.330222 0.000000 0.000000 0.000000 0.125549 -0.775688 6.262347 -1.639967 0.355127 5.177381 -0.376376 -1.539014 1.236250 0.000000 0.000000 0.000000 -0.859519 -0.866551 13.046576 -6.833702 -1.716382 -20.214274 7.726985 -1.477454 25.523065 1.391037 -0.058600 -1.226379 0.000000 0.000000 0.000000 -2.209740 4.167738 -2.345333 -58.386064 4.554549 -11.170526 -24.444372 -28.856992 9.431285 -4.470769 6.729377 21.072759 -23.392730 9.050087 1.088797 -6.783636 8.733531 13.947541 0.000000 0.000000 0.000000 -19.236226 3.481031 -3.022598 -26.968200 5.288871 -0.439275 0.000000 0.000000 0.000000 3.576670 -16.771441 -11.395651 -56.799733 -14.357241 -27.353593 0.000000 0.000000 0.000000 -16.453919 -0.880100 -2.661759 -47.790366 -1.742157 -10.157557 0.000000 0.000000 0.000000 7.250366 32.717525 33.142951 1.979148 -18.767689 -7.220205 0.000000 0.000000 0.000000 0.085264 -4.902001 -2.560784 59.918224 2.153578 -6.649526 13.619315 34.088573 3.084244 8.640572 -4.737541 11.514695 21.296420 -3.780919 0.903690 20.759067 -9.312592 8.590381 0.000000 0.000000 0.000000 19.581928 1.816447 -4.555330 34.959567 -0.727498 -8.142035 0.000000 0.000000 0.000000 5.546286 16.435187 -19.350440 47.914590 9.882224 -17.212394 0.000000 0.000000 0.000000 21.953825 5.934743 -5.074875 40.841846 5.719655 -11.789832 0.000000 0.000000 0.000000 -4.647319 -28.569247 28.949193 -4.423902 14.454434 -6.550810 0.000000 0.000000 0.000000 
-0.000032 0.955284 -0.000732 0.285061 0.368280 -7.064481 1.588252 0.996861 7.792785 1.217626 -0.166882 0.584244 -6.060345 -8.213204 4.352626 0.000000 0.000000 0.000000 0.147696 -0.733436 5.925285 -1.681710 0.375566 5.501429 -0.226520 -1.205052 1.166010 0.000000 0.000000 0.000000 -0.790105 -0.897914 13.419926 -7.000065 -1.730187 -20.396604 7.916199 -1.271653 25.391028 1.329609 -0.033235 -1.323506 0.000000 0.000000 0.000000 -2.304859 4.362536 -2.457473 -58.461000 4.633401 -11.174333 -24.523596 -28.901369 9.470416 -3.768334 7.984943 21.777284 -23.108448 5.073266 0.276465 -7.698295 9.548275 14.446874 0.000000 0.000000 0.000000 -19.748843 2.387533 -3.585670 -28.510094 3.115346 -5.522312 0.000000 0.000000 0.000000 3.671748 -16.851768 -11.273657 -57.346456 -13.808056 -26.610298 0.000000 0.000000 0.000000 -16.669064 -1.717782 -3.049150 -47.953307 -1.272019 -9.553765 0.000000 0.000000 0.000000 7.113676 31.321171 31.776172 -0.196333 -16.501600 -5.299959 0.000000 0.000000 0.000000 -0.115092 -4.720503 -2.433954 60.050954 2.360512 -6.605714 13.502087 34.104557 3.051455 8.784951 -4.014719 11.103574 22.000994 -5.904971 1.353686 17.464591 -9.186766 10.041345 0.000000 0.000000 0.000000 20.750400 -0.560090 -3.822421 32.893640 -1.278617 -6.771090 0.000000 0.000000 0.000000 7.166527 13.582014 -16.585410 42.160025 11.457084 -22.453680 0.000000 0.000000 0.000000 22.431091 3.028101 -3.857485 38.794926 8.256625 -16.965600 0.000000 0.000000 0.000000 -5.283172 -29.680899 30.156085 -3.968846 14.852592 -6.513525 0.000000 0.000000 0.000000 
-0.000032 0.955284 -0.000732 0.275699 0.376062 -7.064408 1.605121 0.995100 7.791162 1.207293 -0.166135 0.585588 -6.063930 -8.220530 4.351734 0.000000 0.000000 0.000000 0.160120 -0.734833 5.927303 -1.683880 0.375679 5.499089 -0.228680 -1.211695 1.169969 0.000000 0.000000 0.000000 -0.795452 -0.897685 13.420144 -6.961643 -1.742473 -20.394678 7.882900 -1.256208 25.391321 1.342899 -0.035183 -1.324211 0.000000 0.000000 0.000000 -2.280978 4.371030 -2.458821 -58.407845 5.268354 -11.305323 -24.926697 -29.328219 9.736563 -3.563936 7.135387 20.745312 -22.689359 7.958917 0.987488 -5.320357 8.289444 14.362805 0.000000 0.000000 0.000000 -18.779456 2.107969 -3.372203 -27.772238 5.486116 -0.219074 0.000000 0.000000 0.000000 7.129824 -18.401521 -12.337764 -58.141913 -16.624008 -28.667176 0.000000 0.000000 0.000000 -16.539201 1.652988 -1.671607 -48.244913 -3.953329 -13.777390 0.000000 0.000000 0.000000 7.840485 32.634669 33.126300 1.511165 -19.346425 -7.182952 0.000000 0.000000 0.000000 -0.092737 -4.711383 -2.432830 60.025733 2.356802 -6.600088 13.628116 34.631375 3.153257 8.637766 -5.451400 11.726111 20.711282 -2.330384 0.571509 22.407314 -11.574021 11.151650 0.000000 0.000000 0.000000 20.610495 -0.042246 -4.030091 35.311278 -1.167739 -7.490453 0.000000 0.000000 0.000000 2.754268 17.192010 -19.761194 45.101737 9.009445 -16.985314 0.000000 0.000000 0.000000 22.050981 3.157940 -3.916274 38.114010 7.703369 -16.448773 0.000000 0.000000 0.000000 -5.604105 -30.271042 30.916709 -5.906559 19.754891 -9.259836 0.000000 0.000000 0.000000 
-0.000091 0.955284 -0.000732 0.267590 0.327918 -7.040302 1.619306 0.992577 7.776430 1.196199 -0.163885 0.573497 -6.045816 -8.181882 4.358525 0.000000 0.000000 0.000000 0.142360 -0.727589 5.883333 -1.635598 0.371767 5.519191 -0.209843 -1.172775 1.166333 0.000000 0.000000 0.000000 -0.819388 -0.893466 13.369414 -6.972867 -1.732981 -20.357513 8.078955 -0.654913 25.177729 1.525710 -0.122894 -0.934146 0.000000 0.000000 0.000000 -2.094378 3.601758 -2.049018 -58.454415 5.110395 -11.389296 -24.695990 -29.293028 9.635537 -4.120453 7.938363 21.691031 -21.477986 4.826596 0.397844 -7.870355 9.015132 13.514288 0.000000 0.000000 0.000000 -18.773020 1.814212 -3.539708 -27.403619 2.905920 -5.691628 0.000000 0.000000 0.000000 6.833898 -16.869073 -11.131620 -56.904160 -13.959391 -27.057735 0.000000 0.000000 0.000000 -15.533759 -2.189363 -3.073919 -46.763988 -1.331936 -9.954488 0.000000 0.000000 0.000000 7.322153 30.685008 31.054667 -1.036238 -15.933043 -4.732504 0.000000 0.000000 0.000000 -0.013578 -5.130097 -2.666373 59.995670 1.866978 -6.628512 13.710872 34.690799 3.201227 8.328487 -5.675039 11.688369 21.867622 -2.043422 0.468305 20.825303 -9.029706 8.140745 0.000000 0.000000 0.000000 21.544414 0.279199 -4.334950 33.271630 -1.222865 -6.952643 0.000000 0.000000 0.000000 5.148249 17.885462 -21.139271 43.416274 7.813011 -14.851989 0.000000 0.000000 0.000000 20.911952 6.911684 -5.464688 40.132824 6.202959 -12.804301 0.000000 0.000000 0.000000 -3.809084 -30.223566 30.764583 -9.039455 18.402106 -10.279193 0.000000 0.000000 0.000000 
